<?xml version="1.0" encoding="utf-8"?>
<!-- Generator: Adobe Illustrator 25.0.0, SVG Export Plug-In . SVG Version: 6.00 Build 0)  -->
<svg version="1.1" id="Camada_1" xmlns="http://www.w3.org/2000/svg" xmlns:xlink="http://www.w3.org/1999/xlink" x="0px" y="0px"
	 viewBox="0 0 1112.4 848.6" style="enable-background:new 0 0 1112.4 848.6;" xml:space="preserve">
<style type="text/css">
	.st0{clip-path:url(#SVGID_2_);}
	.st1{fill-rule:evenodd;clip-rule:evenodd;fill:#FFFFFF;}
	.st2{fill:#FFFFFF;}
</style>
<g>
	<g>
		<g>
			<defs>
				<path id="SVGID_1_" d="M289,370.1C596.5,307,735.2,191.3,823.4,30.9C767.9,126.5,530.1,208.2,412.1,231L289,370.1z"/>
			</defs>
			<use xlink:href="#SVGID_1_"  style="overflow:visible;fill-rule:evenodd;clip-rule:evenodd;fill:#FFFFFF;"/>
			<clipPath id="SVGID_2_">
				<use xlink:href="#SVGID_1_"  style="overflow:visible;"/>
			</clipPath>
			<g class="st0">
				<path class="st1" d="M289,23.8v346.3V23.8z"/>
			</g>
			<g class="st0">
				<rect x="289" y="23.8" class="st1" width="3.7" height="346.3"/>
			</g>
			<g class="st0">
				<rect x="292.8" y="23.8" class="st1" width="3.7" height="346.3"/>
			</g>
			<g class="st0">
				<rect x="296.5" y="23.8" class="st1" width="3.7" height="346.3"/>
			</g>
			<g class="st0">
				<rect x="300.2" y="23.8" class="st1" width="3.7" height="346.3"/>
			</g>
			<g class="st0">
				<rect x="304" y="23.8" class="st1" width="3.7" height="346.3"/>
			</g>
			<g class="st0">
				<rect x="307.7" y="23.8" class="st1" width="3.7" height="346.3"/>
			</g>
			<g class="st0">
				<rect x="311.4" y="23.8" class="st1" width="3.7" height="346.3"/>
			</g>
			<g class="st0">
				<rect x="315.2" y="23.8" class="st1" width="3.7" height="346.3"/>
			</g>
			<g class="st0">
				<rect x="318.9" y="23.8" class="st1" width="3.7" height="346.3"/>
			</g>
			<g class="st0">
				<rect x="322.6" y="23.8" class="st1" width="3.7" height="346.3"/>
			</g>
			<g class="st0">
				<rect x="326.4" y="23.8" class="st1" width="3.7" height="346.3"/>
			</g>
			<g class="st0">
				<rect x="330.1" y="23.8" class="st1" width="3.7" height="346.3"/>
			</g>
			<g class="st0">
				<rect x="333.8" y="23.8" class="st1" width="3.7" height="346.3"/>
			</g>
			<g class="st0">
				<rect x="337.6" y="23.8" class="st1" width="3.7" height="346.3"/>
			</g>
			<g class="st0">
				<rect x="341.3" y="23.8" class="st1" width="3.7" height="346.3"/>
			</g>
			<g class="st0">
				<rect x="345.1" y="23.8" class="st1" width="3.7" height="346.3"/>
			</g>
			<g class="st0">
				<rect x="348.8" y="23.8" class="st1" width="3.7" height="346.3"/>
			</g>
			<g class="st0">
				<rect x="352.5" y="23.8" class="st1" width="3.7" height="346.3"/>
			</g>
			<g class="st0">
				<rect x="356.3" y="23.8" class="st1" width="3.7" height="346.3"/>
			</g>
			<g class="st0">
				<rect x="360" y="23.8" class="st1" width="3.7" height="346.3"/>
			</g>
			<g class="st0">
				<rect x="363.7" y="23.8" class="st1" width="3.7" height="346.3"/>
			</g>
			<g class="st0">
				<rect x="367.5" y="23.8" class="st1" width="3.7" height="346.3"/>
			</g>
			<g class="st0">
				<polygon class="st1" points="370.8,30.5 370.8,376.8 371.2,370.1 371.2,23.8 				"/>
			</g>
			<g class="st0">
				<rect x="370.8" y="30.5" class="st1" width="3.7" height="346.3"/>
			</g>
			<g class="st0">
				<rect x="374.6" y="30.5" class="st1" width="3.7" height="346.3"/>
			</g>
			<g class="st0">
				<polygon class="st1" points="386.1,23.8 386.1,370.1 378.3,376.8 378.3,30.5 				"/>
			</g>
			<g class="st0">
				<rect x="386.1" y="23.8" class="st1" width="3.7" height="346.3"/>
			</g>
			<g class="st0">
				<rect x="389.9" y="23.8" class="st1" width="3.7" height="346.3"/>
			</g>
			<g class="st0">
				<rect x="393.6" y="23.8" class="st1" width="3.7" height="346.3"/>
			</g>
			<g class="st0">
				<rect x="397.3" y="23.8" class="st1" width="3.7" height="346.3"/>
			</g>
			<g class="st0">
				<rect x="401.1" y="23.8" class="st1" width="3.7" height="346.3"/>
			</g>
			<g class="st0">
				<rect x="404.8" y="23.8" class="st1" width="3.7" height="346.3"/>
			</g>
			<g class="st0">
				<rect x="408.5" y="23.8" class="st1" width="3.7" height="346.3"/>
			</g>
			<g class="st0">
				<rect x="412.3" y="23.8" class="st1" width="3.7" height="346.3"/>
			</g>
			<g class="st0">
				<rect x="416" y="23.8" class="st1" width="3.7" height="346.3"/>
			</g>
			<g class="st0">
				<rect x="419.8" y="23.8" class="st1" width="3.7" height="346.3"/>
			</g>
			<g class="st0">
				<rect x="423.5" y="23.8" class="st1" width="3.7" height="346.3"/>
			</g>
			<g class="st0">
				<rect x="427.2" y="23.8" class="st1" width="3.7" height="346.3"/>
			</g>
			<g class="st0">
				<rect x="431" y="23.8" class="st1" width="3.7" height="346.3"/>
			</g>
			<g class="st0">
				<rect x="434.7" y="23.8" class="st1" width="3.7" height="346.3"/>
			</g>
			<g class="st0">
				<rect x="438.4" y="23.8" class="st1" width="3.7" height="346.3"/>
			</g>
			<g class="st0">
				<rect x="442.2" y="23.8" class="st1" width="3.7" height="346.3"/>
			</g>
			<g class="st0">
				<rect x="445.9" y="23.8" class="st1" width="3.7" height="346.3"/>
			</g>
			<g class="st0">
				<rect x="449.6" y="23.8" class="st1" width="3.7" height="346.3"/>
			</g>
			<g class="st0">
				<rect x="453.4" y="23.8" class="st1" width="3.7" height="346.3"/>
			</g>
			<g class="st0">
				<rect x="457.1" y="23.8" class="st1" width="3.7" height="346.3"/>
			</g>
			<g class="st0">
				<rect x="460.8" y="23.8" class="st1" width="3.7" height="346.3"/>
			</g>
			<g class="st0">
				<rect x="464.6" y="23.8" class="st1" width="3.7" height="346.3"/>
			</g>
			<g class="st0">
				<rect x="468.3" y="23.8" class="st1" width="3.7" height="346.3"/>
			</g>
			<g class="st0">
				<rect x="472" y="23.8" class="st1" width="3.7" height="346.3"/>
			</g>
			<g class="st0">
				<rect x="475.8" y="23.8" class="st1" width="3.7" height="346.3"/>
			</g>
			<g class="st0">
				<rect x="479.5" y="23.8" class="st1" width="3.7" height="346.3"/>
			</g>
			<g class="st0">
				<rect x="483.2" y="23.8" class="st1" width="3.7" height="346.3"/>
			</g>
			<g class="st0">
				<rect x="487" y="23.8" class="st1" width="3.7" height="346.3"/>
			</g>
			<g class="st0">
				<rect x="490.7" y="23.8" class="st1" width="3.7" height="346.3"/>
			</g>
			<g class="st0">
				<rect x="494.5" y="23.8" class="st1" width="3.7" height="346.3"/>
			</g>
			<g class="st0">
				<rect x="498.2" y="23.8" class="st1" width="3.7" height="346.3"/>
			</g>
			<g class="st0">
				<rect x="501.9" y="23.8" class="st1" width="3.7" height="346.3"/>
			</g>
			<g class="st0">
				<rect x="505.7" y="23.8" class="st1" width="3.7" height="346.3"/>
			</g>
			<g class="st0">
				<rect x="509.4" y="23.8" class="st1" width="3.7" height="346.3"/>
			</g>
			<g class="st0">
				<rect x="513.1" y="23.8" class="st1" width="3.7" height="346.3"/>
			</g>
			<g class="st0">
				<rect x="516.9" y="23.8" class="st1" width="3.7" height="346.3"/>
			</g>
			<g class="st0">
				<rect x="520.6" y="23.8" class="st1" width="3.7" height="346.3"/>
			</g>
			<g class="st0">
				<rect x="524.3" y="23.8" class="st1" width="3.7" height="346.3"/>
			</g>
			<g class="st0">
				<rect x="528.1" y="23.8" class="st1" width="3.7" height="346.3"/>
			</g>
			<g class="st0">
				<rect x="531.8" y="23.8" class="st1" width="3.7" height="346.3"/>
			</g>
			<g class="st0">
				<rect x="535.5" y="23.8" class="st1" width="3.7" height="346.3"/>
			</g>
			<g class="st0">
				<rect x="539.3" y="23.8" class="st1" width="3.7" height="346.3"/>
			</g>
			<g class="st0">
				<rect x="543" y="23.8" class="st1" width="3.7" height="346.3"/>
			</g>
			<g class="st0">
				<rect x="546.7" y="23.8" class="st1" width="3.7" height="346.3"/>
			</g>
			<g class="st0">
				<rect x="550.5" y="23.8" class="st1" width="3.7" height="346.3"/>
			</g>
			<g class="st0">
				<rect x="554.2" y="23.8" class="st1" width="3.7" height="346.3"/>
			</g>
			<g class="st0">
				<rect x="557.9" y="23.8" class="st1" width="3.7" height="346.3"/>
			</g>
			<g class="st0">
				<rect x="561.7" y="23.8" class="st1" width="3.7" height="346.3"/>
			</g>
			<g class="st0">
				<rect x="565.4" y="23.8" class="st1" width="3.7" height="346.3"/>
			</g>
			<g class="st0">
				<rect x="569.2" y="23.8" class="st1" width="3.7" height="346.3"/>
			</g>
			<g class="st0">
				<rect x="572.9" y="23.8" class="st1" width="3.7" height="346.3"/>
			</g>
			<g class="st0">
				<rect x="576.6" y="23.8" class="st1" width="3.7" height="346.3"/>
			</g>
			<g class="st0">
				<rect x="580.4" y="23.8" class="st1" width="3.7" height="346.3"/>
			</g>
			<g class="st0">
				<rect x="584.1" y="23.8" class="st1" width="3.7" height="346.3"/>
			</g>
			<g class="st0">
				<rect x="587.8" y="23.8" class="st1" width="3.7" height="346.3"/>
			</g>
			<g class="st0">
				<rect x="591.6" y="23.8" class="st1" width="3.7" height="346.3"/>
			</g>
			<g class="st0">
				<rect x="595.3" y="23.8" class="st1" width="3.7" height="346.3"/>
			</g>
			<g class="st0">
				<rect x="599" y="23.8" class="st1" width="3.7" height="346.3"/>
			</g>
			<g class="st0">
				<rect x="602.8" y="23.8" class="st1" width="3.7" height="346.3"/>
			</g>
			<g class="st0">
				<rect x="606.5" y="23.8" class="st1" width="3.7" height="346.3"/>
			</g>
			<g class="st0">
				<rect x="610.2" y="23.8" class="st1" width="3.7" height="346.3"/>
			</g>
			<g class="st0">
				<rect x="614" y="23.8" class="st1" width="3.7" height="346.3"/>
			</g>
			<g class="st0">
				<rect x="617.7" y="23.8" class="st1" width="3.7" height="346.3"/>
			</g>
			<g class="st0">
				<rect x="621.4" y="23.8" class="st1" width="3.7" height="346.3"/>
			</g>
			<g class="st0">
				<rect x="625.2" y="23.8" class="st1" width="3.7" height="346.3"/>
			</g>
			<g class="st0">
				<rect x="628.9" y="23.8" class="st1" width="3.7" height="346.3"/>
			</g>
			<g class="st0">
				<rect x="632.6" y="23.8" class="st1" width="3.7" height="346.3"/>
			</g>
			<g class="st0">
				<rect x="636.4" y="23.8" class="st1" width="3.7" height="346.3"/>
			</g>
			<g class="st0">
				<rect x="640.1" y="23.8" class="st1" width="3.7" height="346.3"/>
			</g>
			<g class="st0">
				<rect x="643.9" y="23.8" class="st1" width="3.7" height="346.3"/>
			</g>
			<g class="st0">
				<rect x="647.6" y="23.8" class="st1" width="3.7" height="346.3"/>
			</g>
			<g class="st0">
				<rect x="651.3" y="23.8" class="st1" width="3.7" height="346.3"/>
			</g>
			<g class="st0">
				<rect x="655.1" y="23.8" class="st1" width="3.7" height="346.3"/>
			</g>
			<g class="st0">
				<rect x="658.8" y="23.8" class="st1" width="3.7" height="346.3"/>
			</g>
			<g class="st0">
				<rect x="662.5" y="23.8" class="st1" width="3.7" height="346.3"/>
			</g>
			<g class="st0">
				<rect x="666.3" y="23.8" class="st1" width="3.7" height="346.3"/>
			</g>
			<g class="st0">
				<rect x="670" y="23.8" class="st1" width="3.7" height="346.3"/>
			</g>
			<g class="st0">
				<rect x="673.7" y="23.8" class="st1" width="3.7" height="346.3"/>
			</g>
			<g class="st0">
				<rect x="677.5" y="23.8" class="st1" width="3.7" height="346.3"/>
			</g>
			<g class="st0">
				<rect x="681.2" y="23.8" class="st1" width="3.7" height="346.3"/>
			</g>
			<g class="st0">
				<rect x="684.9" y="23.8" class="st1" width="3.7" height="346.3"/>
			</g>
			<g class="st0">
				<rect x="688.7" y="23.8" class="st1" width="3.7" height="346.3"/>
			</g>
			<g class="st0">
				<rect x="692.4" y="23.8" class="st1" width="3.7" height="346.3"/>
			</g>
			<g class="st0">
				<rect x="696.1" y="23.8" class="st1" width="3.7" height="346.3"/>
			</g>
			<g class="st0">
				<rect x="699.9" y="23.8" class="st1" width="3.7" height="346.3"/>
			</g>
			<g class="st0">
				<rect x="703.6" y="23.8" class="st1" width="3.7" height="346.3"/>
			</g>
			<g class="st0">
				<rect x="707.3" y="23.8" class="st1" width="3.7" height="346.3"/>
			</g>
			<g class="st0">
				<rect x="711.1" y="23.8" class="st1" width="3.7" height="346.3"/>
			</g>
			<g class="st0">
				<rect x="714.8" y="23.8" class="st1" width="3.7" height="346.3"/>
			</g>
			<g class="st0">
				<rect x="718.6" y="23.8" class="st1" width="3.7" height="346.3"/>
			</g>
			<g class="st0">
				<rect x="722.3" y="23.8" class="st1" width="3.7" height="346.3"/>
			</g>
			<g class="st0">
				<rect x="726" y="23.8" class="st1" width="3.7" height="346.3"/>
			</g>
			<g class="st0">
				<rect x="729.8" y="23.8" class="st1" width="3.7" height="346.3"/>
			</g>
			<g class="st0">
				<rect x="733.5" y="23.8" class="st1" width="3.7" height="346.3"/>
			</g>
			<g class="st0">
				<rect x="737.2" y="23.8" class="st1" width="3.7" height="346.3"/>
			</g>
			<g class="st0">
				<rect x="741" y="23.8" class="st1" width="3.7" height="346.3"/>
			</g>
			<g class="st0">
				<rect x="744.7" y="23.8" class="st1" width="3.7" height="346.3"/>
			</g>
			<g class="st0">
				<rect x="748.4" y="23.8" class="st1" width="3.7" height="346.3"/>
			</g>
			<g class="st0">
				<rect x="752.2" y="23.8" class="st1" width="3.7" height="346.3"/>
			</g>
			<g class="st0">
				<rect x="755.9" y="23.8" class="st1" width="3.7" height="346.3"/>
			</g>
			<g class="st0">
				<rect x="759.6" y="23.8" class="st1" width="3.7" height="346.3"/>
			</g>
			<g class="st0">
				<rect x="763.4" y="23.8" class="st1" width="3.7" height="346.3"/>
			</g>
			<g class="st0">
				<rect x="767.1" y="23.8" class="st1" width="3.7" height="346.3"/>
			</g>
			<g class="st0">
				<rect x="770.8" y="23.8" class="st1" width="3.7" height="346.3"/>
			</g>
			<g class="st0">
				<rect x="774.6" y="23.8" class="st1" width="3.7" height="346.3"/>
			</g>
			<g class="st0">
				<rect x="778.3" y="23.8" class="st1" width="3.7" height="346.3"/>
			</g>
			<g class="st0">
				<rect x="782" y="23.8" class="st1" width="3.7" height="346.3"/>
			</g>
			<g class="st0">
				<rect x="785.8" y="23.8" class="st1" width="3.7" height="346.3"/>
			</g>
			<g class="st0">
				<rect x="789.5" y="23.8" class="st1" width="3.7" height="346.3"/>
			</g>
			<g class="st0">
				<rect x="793.3" y="23.8" class="st1" width="3.7" height="346.3"/>
			</g>
			<g class="st0">
				<rect x="797" y="23.8" class="st1" width="3.7" height="346.3"/>
			</g>
			<g class="st0">
				<rect x="800.7" y="23.8" class="st1" width="3.7" height="346.3"/>
			</g>
			<g class="st0">
				<rect x="804.5" y="23.8" class="st1" width="3.7" height="346.3"/>
			</g>
			<g class="st0">
				<rect x="808.2" y="23.8" class="st1" width="3.7" height="346.3"/>
			</g>
			<g class="st0">
				<rect x="811.9" y="23.8" class="st1" width="3.7" height="346.3"/>
			</g>
			<g class="st0">
				<rect x="815.7" y="23.8" class="st1" width="3.7" height="346.3"/>
			</g>
			<g class="st0">
				<rect x="819.4" y="23.8" class="st1" width="3.7" height="346.3"/>
			</g>
			<g class="st0">
				<rect x="823.1" y="23.8" class="st1" width="3.7" height="346.3"/>
			</g>
			<g class="st0">
				<rect x="826.9" y="23.8" class="st1" width="3.7" height="346.3"/>
			</g>
			<g class="st0">
				<rect x="830.6" y="23.8" class="st1" width="3.7" height="346.3"/>
			</g>
			<g class="st0">
				<rect x="834.3" y="23.8" class="st1" width="3.7" height="346.3"/>
			</g>
			<g class="st0">
				<rect x="838.1" y="23.8" class="st1" width="3.7" height="346.3"/>
			</g>
			<g class="st0">
				<rect x="841.8" y="23.8" class="st1" width="3.7" height="346.3"/>
			</g>
			<g class="st0">
				<rect x="845.5" y="23.8" class="st1" width="3.7" height="346.3"/>
			</g>
			<g class="st0">
				<rect x="849.3" y="23.8" class="st1" width="3.7" height="346.3"/>
			</g>
			<g class="st0">
				<rect x="853" y="23.8" class="st1" width="3.7" height="346.3"/>
			</g>
			<g class="st0">
				<path class="st1" d="M856.7,370.1V23.8V370.1z"/>
			</g>
		</g>
		<path class="st2" d="M315.8,29.8L411.9,223l3.9-0.6c108.4-17.7,353.6-117.2,395-180l8.5-12.4H315.8z M807.6,39.9
			c-41,62.3-284.7,160.8-392.4,178.4l-1,0.2L322.3,33.9h489.1L807.6,39.9z"/>
		<path class="st2" d="M650.4,242.4c-5.3,3.5-10.6,7-15.9,10.4c-48.4,30.6-102.9,56.2-166.6,78.4l-4.3,1.5l74.6,149.9l125-248.8
			L650.4,242.4z M467.4,334.2l1.4-0.5c63.8-22.2,118.5-47.9,167.1-78.6c5.3-3.4,10.7-6.9,16-10.4l4.2-2.9l-118,234.8L467.4,334.2z"
			/>
		<polygon class="st2" points="326.7,36.6 359.8,103.1 359.8,36.6 		"/>
		<path class="st2" d="M523.9,36.6l-40.1,0v162.4c12.8-3.8,26.3-8.1,40.1-12.8V36.6z"/>
		<polygon class="st2" points="406.1,36.6 366,36.6 366,115.6 406.1,196.2 		"/>
		<path class="st2" d="M415.7,215.5c17.5-2.9,38.6-8,61.9-14.8V36.6l-65.3,0v172.1L415.7,215.5z"/>
		<path class="st2" d="M476.3,333.9c-0.7,0.2-1.3,0.5-2,0.7c-0.7,0.2-1.3,0.5-2,0.7c-0.4,0.1-0.8,0.3-1.2,0.4l0.5,1.1l1.4,2.8
			l1.4,2.7l1.3,2.7l1.3,2.6l0.6,1.2v-15.4C477.2,333.5,476.8,333.7,476.3,333.9z"/>
		<polygon class="st2" points="587.8,372 588,371.6 589,369.4 590.1,367.3 591.2,365.1 592.3,362.9 593.4,360.7 594.6,358.4 
			595.7,356.1 596.7,354.2 587.8,334.5 		"/>
		<path class="st2" d="M532.5,311.9c-1,0.4-2.1,0.9-3.1,1.3c-1,0.4-2,0.8-3,1.3c-0.9,0.4-1.9,0.8-2.8,1.2c-0.9,0.4-1.8,0.8-2.8,1.1
			c-0.9,0.4-1.7,0.7-2.6,1.1c-0.9,0.3-1.7,0.7-2.6,1c-0.8,0.3-1.7,0.7-2.5,1c-0.8,0.3-1.6,0.6-2.4,1c-0.8,0.3-1.6,0.6-2.4,0.9
			c-0.8,0.3-1.5,0.6-2.3,0.9c-0.8,0.3-1.5,0.6-2.3,0.9c-0.8,0.3-1.5,0.6-2.3,0.9c-0.7,0.3-1.5,0.6-2.2,0.9c-0.7,0.3-1.5,0.6-2.2,0.8
			c-0.7,0.3-1.4,0.6-2.1,0.8c-0.7,0.3-1.4,0.5-2.2,0.8c-0.7,0.3-1.4,0.5-2.1,0.8c-0.7,0.3-1.4,0.5-2.1,0.8c-0.7,0.3-1.4,0.5-2.1,0.8
			c-0.7,0.3-1.4,0.5-2,0.8c-0.2,0.1-0.3,0.1-0.5,0.2v30.1l0.4,0.7l1.1,2.2l1.1,2.2l1.1,2.2l1.1,2.2l1.1,2.1l1.1,2.1l1,2.1l1,2.1l1,2
			l1,2l1,2l1,2l1,2l1,2l1,1.9l1,1.9l1,1.9l0.9,1.9l0.9,1.9l0.9,1.9l0.9,1.9l0.9,1.9l0.9,1.9l0.9,1.8l0.9,1.8l0.9,1.8l0.9,1.8
			l0.9,1.8l0.9,1.8l0.9,1.8l0.9,1.8l0.9,1.8l0.9,1.8l0.9,1.8l0.9,1.8l0.9,1.8l0.9,1.7l0.9,1.7l0.9,1.7l0.9,1.7l0.9,1.7l0.9,1.7
			l0.8,1.7l0.8,1.7l0.8,1.7l0.8,1.7l0.8,1.7l0.8,1.7l0.8,1.7l0.8,1.7l0.8,1.7l0.8,1.7l0.8,1.7l0.8,1.7l0.8,1.7l0.4,0.9V310.8
			C534.3,311.2,533.4,311.5,532.5,311.9z"/>
		<path class="st2" d="M640.1,267.8l4.5-8.9l3.1-6.1l1.6-3.2c-0.4,0.3-0.8,0.5-1.1,0.8c-0.6,0.4-1.3,0.8-1.9,1.2
			c-0.6,0.4-1.3,0.8-1.9,1.3c-0.7,0.4-1.3,0.8-2,1.3c-0.7,0.4-1.3,0.8-2,1.3c-0.7,0.4-1.3,0.9-2,1.3c-0.3,0.2-0.6,0.4-0.9,0.6
			c-0.4,0.2-0.7,0.5-1.1,0.7c-0.7,0.4-1.4,0.9-2.1,1.3c-0.3,0.2-0.6,0.4-0.9,0.5l3,15.4L640.1,267.8z"/>
		<path class="st2" d="M541.7,463.6l0.8-1.7l0.8-1.7l0.8-1.7l0.8-1.7l0.8-1.7l0.8-1.7l0.8-1.7l0.8-1.7l0.8-1.7l0.8-1.7l0.9-1.7
			l0.9-1.7l0.9-1.7l0.9-1.7l0.9-1.7l0.9-1.7l0.9-1.7l0.9-1.7l0.9-1.7l0.9-1.7l0.9-1.7l0.9-1.8l0.9-1.8l0.9-1.8l0.9-1.8l0.9-1.8
			l0.9-1.8l0.9-1.8l0.9-1.8l0.9-1.8l0.9-1.8l0.9-1.8l0.9-1.8l0.9-1.8l0.9-1.9l0.9-1.9l0.9-1.9l1-1.9l1-1.9l1-1.9l1-1.9l1-1.9l1-1.9
			l1-2l0.7-1.4v-64.2l5.5-2.3l13.2,29.2l0.4-0.8l1.3-2.6l1.3-2.7l1.4-2.7l1.4-2.8l1.5-2.9l1.5-3.1l1.6-3.2l1.7-3.4l1.8-3.7l2-4
			l2.2-4.4l2.5-5l3.1-6.2l4.5-8.9l4.1-8.1l-4-19.8c-0.4,0.2-0.7,0.4-1.1,0.7c-0.7,0.5-1.5,0.9-2.3,1.4c-0.8,0.5-1.6,0.9-2.3,1.4
			c-0.8,0.5-1.6,1-2.4,1.4c-0.8,0.5-1.7,1-2.5,1.5c-0.9,0.5-1.7,1-2.6,1.5c-0.9,0.5-1.8,1-2.7,1.5c-0.9,0.5-1.9,1.1-2.8,1.6
			c-1,0.6-2,1.1-3,1.7c-1.1,0.6-2.1,1.2-3.2,1.8c-1.2,0.6-2.3,1.3-3.5,1.9c-1.3,0.7-2.5,1.4-3.8,2.1c-1.5,0.8-2.9,1.6-4.4,2.4
			c-1.8,1-3.6,1.9-5.5,2.9c-2.7,1.4-5.5,2.9-8.3,4.3c-5.4,2.7-10.9,5.4-16.5,8.1c-2.8,1.3-5.6,2.7-8.5,4c-1.8,0.8-3.6,1.7-5.5,2.5
			c-1.5,0.7-3.1,1.4-4.6,2.1c-0.6,0.3-1.3,0.6-1.9,0.9v156.1L541.7,463.6z"/>
		<path class="st2" d="M541.5,180c21.6-7.7,43.7-16.2,65.7-25.2L583.4,36.5l-41.9,0V180z"/>
		<path class="st2" d="M530.2,36.6V184c1.7-0.6,3.4-1.2,5.1-1.8V36.6L530.2,36.6z"/>
		<path class="st2" d="M768.8,36.5v35.6c17-11.9,29.7-23.3,36.4-33.5l1.3-2L768.8,36.5z"/>
		<path class="st2" d="M762.6,36.5l-39.8,0v63.8c14.7-8.1,28.1-16.1,39.8-24V36.5z"/>
		<path class="st2" d="M707.4,36.5v72.1c3.1-1.6,6.2-3.3,9.2-4.9V36.5L707.4,36.5z"/>
		<path class="st2" d="M701.2,36.5l-39.8,0v94.7c13.8-6.4,27.1-12.9,39.8-19.4V36.5z"/>
		<path class="st2" d="M655.1,134.1V36.5l-65.9,0l23,116.2C626.7,146.7,641.1,140.5,655.1,134.1z"/>
	</g>
	<g>
		<g>
			<path class="st2" d="M61,818.7c0,0-1.1-0.6-3.3-1.8c-2.2-1.2-3.9-2.9-5.1-5.2c-1.2-2.3-1.7-5-1.7-8.2v-11.2c0-3.2,0.6-6,1.7-8.2
				c1.2-2.3,2.8-4,5.1-5.2c2.2-1.2,4.9-1.8,8-1.8c2.6,0,4.9,0.6,6.9,1.7c2,1.1,3.7,2.7,5,4.8c1.3,2.1,2.2,4.6,2.7,7.6h-8
				c-0.3-1.3-0.8-2.5-1.4-3.5c-0.6-1-1.4-1.7-2.3-2.2c-0.9-0.5-1.9-0.8-3-0.8c-1.4,0-2.7,0.3-3.7,0.9c-1,0.6-1.8,1.5-2.3,2.6
				c-0.5,1.1-0.8,2.5-0.8,4.1v11.2c0,1.6,0.3,2.9,0.8,4.1c0.5,1.1,1.3,2,2.3,2.6c1,0.6,2.2,0.9,3.7,0.9c1.1,0,2.1-0.2,3-0.7
				c0.9-0.5,1.7-1.2,2.3-2.2s1.1-2.1,1.3-3.5h8c-0.5,3-1.4,5.5-2.8,7.6c-1.3,2.1-3,3.7-5,4.8c-2,1.1-4.3,1.7-6.9,1.7
				C62.6,818.7,61,818.7,61,818.7z"/>
			<path class="st2" d="M86.8,777.5h7.7v40.8h-7.7V777.5z M89.6,777.5h24.6v7.4H89.6V777.5z M89.6,794.3H111v7.4H89.6V794.3z
				 M89.6,810.9h24.6v7.4H89.6V810.9z"/>
			<path class="st2" d="M121.1,777.5h9.4l15.2,31.3l-0.7,0.7v-32h7.4v40.8H143l-15.1-30.8l0.7-0.7v31.5h-7.4V777.5z"/>
			<path class="st2" d="M158,777.5H188v7.4H158V777.5z M169.1,780.8h7.7v37.5h-7.7V780.8z"/>
			<path class="st2" d="M192.4,777.5h7.7v40.8h-7.7V777.5z M195.5,794.5h14.2c0.8,0,1.5-0.2,2.1-0.6c0.6-0.4,1.1-1,1.4-1.7
				c0.3-0.7,0.5-1.6,0.5-2.5c0-1-0.2-1.8-0.5-2.5c-0.3-0.7-0.8-1.3-1.4-1.7c-0.6-0.4-1.3-0.6-2.1-0.6h-14.2v-7.4h14.8
				c2.2,0,4.2,0.5,5.9,1.5c1.7,1,3,2.4,4,4.3c0.9,1.8,1.4,4,1.4,6.4c0,2.4-0.5,4.6-1.4,6.4c-0.9,1.8-2.3,3.3-4,4.3
				c-1.7,1-3.7,1.5-5.9,1.5h-14.8V794.5z M204.1,800.6l8.2-1.3l11,19H214L204.1,800.6z"/>
			<path class="st2" d="M235.1,816.9c-2.3-1.2-4-3-5.2-5.3c-1.2-2.3-1.9-4.9-1.9-7.9v-11.6c0-3,0.6-5.6,1.9-7.9c1.2-2.3,3-4,5.2-5.3
				c2.3-1.2,4.9-1.9,7.8-1.9c3,0,5.6,0.6,7.8,1.9c2.3,1.2,4,3,5.2,5.3c1.2,2.3,1.9,4.9,1.9,7.9v11.6c0,3-0.6,5.6-1.9,7.9
				c-1.2,2.3-3,4-5.2,5.3c-2.3,1.2-4.9,1.9-7.8,1.9C239.9,818.7,237.3,818.1,235.1,816.9z M246.5,810.2c1-0.6,1.9-1.4,2.4-2.5
				c0.6-1.1,0.9-2.3,0.9-3.8v-12c0-1.4-0.3-2.7-0.9-3.8c-0.6-1.1-1.4-1.9-2.4-2.5c-1-0.6-2.3-0.9-3.6-0.9c-1.4,0-2.6,0.3-3.6,0.9
				c-1,0.6-1.9,1.4-2.4,2.5c-0.6,1.1-0.9,2.3-0.9,3.8v12c0,1.4,0.3,2.7,0.9,3.8c0.6,1.1,1.4,1.9,2.4,2.5c1,0.6,2.3,0.9,3.6,0.9
				C244.3,811,245.5,810.7,246.5,810.2z"/>
			<path class="st2" d="M287.6,817c-2.2-1.2-3.9-2.9-5.1-5.2s-1.7-5-1.7-8.2v-26.1h7.7v26.2c0,2.3,0.6,4.2,1.9,5.4
				c1.3,1.3,3,1.9,5.3,1.9c2.3,0,4.1-0.6,5.3-1.9c1.3-1.3,1.9-3.1,1.9-5.4v-26.2h7.7v26.1c0,3.2-0.6,5.9-1.8,8.2
				c-1.2,2.3-2.9,4-5.1,5.2c-2.2,1.2-4.9,1.8-8.1,1.8C292.5,818.7,289.8,818.1,287.6,817z"/>
			<path class="st2" d="M318.5,777.5h9.4l15.2,31.3l-0.7,0.7v-32h7.4v40.8h-9.5l-15.1-30.8l0.7-0.7v31.5h-7.4V777.5z"/>
			<path class="st2" d="M366.1,818.3h-8v-40.8h8V818.3z"/>
			<path class="st2" d="M371.5,777.5h7.9l8.7,27.2l8.7-27.2h7.9l-13.6,40.8h-6L371.5,777.5z"/>
			<path class="st2" d="M409.7,777.5h7.7v40.8h-7.7V777.5z M412.5,777.5h24.6v7.4h-24.6V777.5z M412.5,794.3H434v7.4h-21.5V794.3z
				 M412.5,810.9h24.6v7.4h-24.6V810.9z"/>
			<path class="st2" d="M444.1,777.5h7.7v40.8h-7.7V777.5z M447.1,794.5h14.2c0.8,0,1.5-0.2,2.1-0.6c0.6-0.4,1.1-1,1.4-1.7
				c0.3-0.7,0.5-1.6,0.5-2.5c0-1-0.2-1.8-0.5-2.5c-0.3-0.7-0.8-1.3-1.4-1.7c-0.6-0.4-1.3-0.6-2.1-0.6h-14.2v-7.4H462
				c2.2,0,4.2,0.5,5.9,1.5c1.7,1,3,2.4,4,4.3c0.9,1.8,1.4,4,1.4,6.4c0,2.4-0.5,4.6-1.4,6.4c-0.9,1.8-2.3,3.3-4,4.3
				c-1.7,1-3.7,1.5-5.9,1.5h-14.8V794.5z M455.7,800.6l8.2-1.3l11,19h-9.3L455.7,800.6z"/>
			<path class="st2" d="M490.3,818.7c0,0-0.9-0.2-2.8-0.6c-1.9-0.4-3.6-1-5.3-1.7c-1.6-0.8-3.1-1.7-4.4-2.7l3.6-6.3
				c1.6,1.3,3.4,2.3,5.4,3c2.1,0.7,4.2,1.1,6.3,1.1c2.5,0,4.5-0.4,5.8-1.3c1.4-0.9,2.1-2.1,2.1-3.6v0c0-1.1-0.3-1.9-0.9-2.6
				c-0.6-0.6-1.4-1.1-2.4-1.4c-1-0.3-2.3-0.6-3.8-0.8c-0.1,0-0.1,0-0.2,0c0,0-0.1,0-0.2,0l-0.6-0.1c-2.7-0.4-5-1-6.8-1.6
				c-1.8-0.6-3.3-1.8-4.6-3.4c-1.3-1.6-1.9-3.9-1.9-6.9v0c0-2.6,0.6-4.9,1.8-6.8c1.2-1.9,2.9-3.3,5.1-4.3c2.2-1,5-1.5,8.1-1.5
				c1.5,0,3,0.2,4.5,0.5c1.5,0.3,3,0.8,4.5,1.5c1.5,0.6,2.8,1.4,4.2,2.3l-3.3,6.5c-1.6-1.1-3.2-1.9-4.9-2.5
				c-1.7-0.6-3.4-0.9-4.9-0.9c-2.4,0-4.2,0.4-5.5,1.2c-1.3,0.8-1.9,1.9-1.9,3.3v0c0,1.2,0.3,2.1,1,2.8c0.7,0.7,1.5,1.2,2.5,1.5
				c1,0.3,2.4,0.7,4.2,1c0.1,0,0.1,0,0.2,0c0.1,0,0.1,0,0.2,0c0.1,0,0.2,0,0.3,0.1c0.1,0,0.2,0.1,0.3,0.1c2.6,0.5,4.7,1.1,6.5,1.8
				c1.7,0.7,3.2,1.9,4.3,3.5c1.2,1.6,1.7,3.8,1.7,6.6v0.1c0,2.6-0.6,4.8-1.8,6.7c-1.2,1.9-3,3.3-5.3,4.2c-2.3,1-5.1,1.5-8.4,1.5
				C491.3,818.7,490.3,818.7,490.3,818.7z"/>
			<path class="st2" d="M522.7,818.3h-8v-40.8h8V818.3z"/>
			<path class="st2" d="M527.7,777.5h29.9v7.4h-29.9V777.5z M538.9,780.8h7.7v37.5h-7.7V780.8z"/>
			<path class="st2" d="M571.3,777.5h4.9l15.6,40.8h-8.3l-9.8-27.9l-9.8,27.9h-8.3L571.3,777.5z M563.2,804.4h21.5v7.4h-21.5V804.4z
				 M570.3,770.2l7.7-6.9l5.1,5.3l-8.3,6.3L570.3,770.2z"/>
			<path class="st2" d="M596.9,777.5h7.7v40.8h-7.7V777.5z M599.9,794.5h14.2c0.8,0,1.5-0.2,2.1-0.6c0.6-0.4,1.1-1,1.4-1.7
				c0.3-0.7,0.5-1.6,0.5-2.5c0-1-0.2-1.8-0.5-2.5c-0.3-0.7-0.8-1.3-1.4-1.7c-0.6-0.4-1.3-0.6-2.1-0.6h-14.2v-7.4h14.8
				c2.2,0,4.2,0.5,5.9,1.5c1.7,1,3,2.4,4,4.3c0.9,1.8,1.4,4,1.4,6.4c0,2.4-0.5,4.6-1.4,6.4c-0.9,1.8-2.3,3.3-4,4.3
				c-1.7,1-3.7,1.5-5.9,1.5h-14.8V794.5z M608.5,800.6l8.2-1.3l11,19h-9.3L608.5,800.6z"/>
			<path class="st2" d="M641.7,818.3h-8v-40.8h8V818.3z"/>
			<path class="st2" d="M656.4,816.9c-2.3-1.2-4-3-5.2-5.3c-1.2-2.3-1.9-4.9-1.9-7.9v-11.6c0-3,0.6-5.6,1.9-7.9c1.2-2.3,3-4,5.2-5.3
				c2.3-1.2,4.9-1.9,7.8-1.9c3,0,5.6,0.6,7.8,1.9c2.3,1.2,4,3,5.2,5.3c1.2,2.3,1.9,4.9,1.9,7.9v11.6c0,3-0.6,5.6-1.9,7.9
				c-1.2,2.3-3,4-5.2,5.3c-2.3,1.2-4.9,1.9-7.8,1.9C661.3,818.7,658.7,818.1,656.4,816.9z M667.9,810.2c1-0.6,1.9-1.4,2.4-2.5
				c0.6-1.1,0.9-2.3,0.9-3.8v-12c0-1.4-0.3-2.7-0.9-3.8c-0.6-1.1-1.4-1.9-2.4-2.5c-1-0.6-2.3-0.9-3.6-0.9s-2.6,0.3-3.6,0.9
				c-1,0.6-1.9,1.4-2.4,2.5c-0.6,1.1-0.9,2.3-0.9,3.8v12c0,1.4,0.3,2.7,0.9,3.8c0.6,1.1,1.4,1.9,2.4,2.5c1,0.6,2.3,0.9,3.6,0.9
				S666.8,810.7,667.9,810.2z"/>
			<path class="st2" d="M712.6,818.7c0,0-0.9-0.2-2.8-0.6c-1.9-0.4-3.6-1-5.2-1.7c-1.6-0.8-3.1-1.7-4.4-2.7l3.6-6.3
				c1.6,1.3,3.4,2.3,5.4,3c2.1,0.7,4.2,1.1,6.3,1.1c2.5,0,4.5-0.4,5.8-1.3c1.4-0.9,2.1-2.1,2.1-3.6v0c0-1.1-0.3-1.9-0.9-2.6
				c-0.6-0.6-1.4-1.1-2.4-1.4c-1-0.3-2.3-0.6-3.8-0.8c-0.1,0-0.1,0-0.2,0c0,0-0.1,0-0.2,0l-0.6-0.1c-2.7-0.4-5-1-6.8-1.6
				c-1.8-0.6-3.3-1.8-4.6-3.4c-1.3-1.6-1.9-3.9-1.9-6.9v0c0-2.6,0.6-4.9,1.8-6.8c1.2-1.9,2.9-3.3,5.1-4.3c2.2-1,5-1.5,8.1-1.5
				c1.5,0,3,0.2,4.5,0.5c1.5,0.3,3,0.8,4.5,1.5c1.5,0.6,2.8,1.4,4.2,2.3l-3.3,6.5c-1.6-1.1-3.2-1.9-4.9-2.5
				c-1.7-0.6-3.4-0.9-4.9-0.9c-2.4,0-4.2,0.4-5.5,1.2c-1.3,0.8-1.9,1.9-1.9,3.3v0c0,1.2,0.3,2.1,1,2.8c0.7,0.7,1.5,1.2,2.5,1.5
				c1,0.3,2.4,0.7,4.2,1c0.1,0,0.1,0,0.2,0c0.1,0,0.1,0,0.2,0c0.1,0,0.2,0,0.3,0.1c0.1,0,0.2,0.1,0.3,0.1c2.6,0.5,4.7,1.1,6.5,1.8
				c1.7,0.7,3.2,1.9,4.3,3.5c1.2,1.6,1.7,3.8,1.7,6.6v0.1c0,2.6-0.6,4.8-1.8,6.7c-1.2,1.9-3,3.3-5.3,4.2c-2.3,1-5.1,1.5-8.4,1.5
				C713.6,818.7,712.6,818.7,712.6,818.7z"/>
			<path class="st2" d="M748.1,777.5h4.9l15.6,40.8h-8.3l-9.8-27.9l-9.8,27.9h-8.3L748.1,777.5z M740,804.4h21.5v7.4H740V804.4z"/>
			<path class="st2" d="M773.7,777.5h9.4l15.2,31.3l-0.7,0.7v-32h7.4v40.8h-9.5l-15.1-30.8l0.7-0.7v31.5h-7.4V777.5z"/>
			<path class="st2" d="M810.5,777.5h29.9v7.4h-29.9V777.5z M821.7,780.8h7.7v37.5h-7.7V780.8z"/>
			<path class="st2" d="M854.1,777.5h4.9l15.6,40.8h-8.3l-9.8-27.9l-9.8,27.9h-8.3L854.1,777.5z M846,804.4h21.5v7.4H846V804.4z"/>
			<path class="st2" d="M920.8,777.5h10.1v40.8h-7v-31.7l0.3,1.8l-7.8,25.3h-6.8l-7.8-24.8l0.3-2.4v31.7h-7v-40.8h10.1L913,805
				L920.8,777.5z"/>
			<path class="st2" d="M951,777.5h4.9l15.6,40.8h-8.3l-9.8-27.9l-9.8,27.9h-8.3L951,777.5z M942.9,804.4h21.5v7.4h-21.5V804.4z"/>
			<path class="st2" d="M976.6,777.5h7.7v40.8h-7.7V777.5z M979.6,794.5h14.2c0.8,0,1.5-0.2,2.1-0.6c0.6-0.4,1.1-1,1.4-1.7
				c0.3-0.7,0.5-1.6,0.5-2.5c0-1-0.2-1.8-0.5-2.5c-0.3-0.7-0.8-1.3-1.4-1.7c-0.6-0.4-1.3-0.6-2.1-0.6h-14.2v-7.4h14.8
				c2.2,0,4.2,0.5,5.9,1.5c1.7,1,3,2.4,4,4.3c0.9,1.8,1.4,4,1.4,6.4c0,2.4-0.5,4.6-1.4,6.4c-0.9,1.8-2.3,3.3-4,4.3
				c-1.7,1-3.7,1.5-5.9,1.5h-14.8V794.5z M988.2,800.6l8.2-1.3l11,19h-9.3L988.2,800.6z"/>
			<path class="st2" d="M1021.5,818.3h-8v-40.8h8V818.3z"/>
			<path class="st2" d="M1041,777.5h4.9l15.6,40.8h-8.3l-9.8-27.9l-9.8,27.9h-8.3L1041,777.5z M1032.9,804.4h21.5v7.4h-21.5V804.4z"
				/>
		</g>
		<g>
			<g>
				<path class="st2" d="M86.2,736c-11.5-6.1-20.3-15.1-26.2-26.8c-6-11.7-9-25.9-9-42.4V532.1h13c14.8,0,26.8,12,26.8,26.8v108.8
					c0,12.1,3.2,21.5,9.7,28.1c6.5,6.7,15.6,10,27.4,10c11.9,0,21.1-3.3,27.6-10c6.5-6.7,9.8-16,9.8-28.1V558.9
					c0-14.8,12-26.8,26.8-26.8h13v134.6c0,16.5-3,30.7-9.1,42.4c-6,11.7-14.8,20.7-26.4,26.8c-11.6,6.1-25.5,9.2-41.7,9.2
					C111.5,745.2,97.7,742.1,86.2,736z"/>
				<path class="st2" d="M245.5,532.1h48.6l78.5,161.5l-3.5,3.8V548.3c0-8.9,7.3-16.2,16.2-16.2h21.8v210.7h-48.9l-78.2-159.1
					l3.5-3.8v146.7c0,8.9-7.3,16.2-16.2,16.2h-21.8V532.1z"/>
				<path class="st2" d="M491.8,743h-41.2V532.1H471c11.5,0,20.8,9.3,20.8,20.8V743z"/>
			</g>
			<path class="st2" d="M747.7,745.2c0,0-4.8-1-14.4-3c-9.6-2-18.7-5-27.1-8.9c-2.2-1-4.4-2.1-6.5-3.2c-9.4-5.1-12.8-16.9-7.6-26.3
				l9.8-17.4c9.7,8,21.3,13.8,34.6,17.4c8.9,2.4,18,3.5,27.2,3.5c12.5-0.1,22.2-2.3,29.2-6.6c7.2-4.4,10.7-10.6,10.7-18.6v-0.1
				c0-5.6-1.6-10.1-4.8-13.3c-3.2-3.3-7.3-5.7-12.5-7.2c-5.1-1.5-11.7-3-19.7-4.2c-0.3-0.1-0.6-0.1-0.8-0.1c-0.2,0-0.5-0.1-0.8-0.1
				l-3.2-0.4c-14.1-2.2-25.8-5-35.1-8.3c-9.3-3.3-17.2-9.2-23.6-17.5c-6.5-8.4-9.7-20.2-9.7-35.6v-0.2c0-13.6,3-25.3,9.1-34.9
				c6.1-9.7,14.9-17,26.5-22.1c11.6-5.1,25.6-7.6,42.1-7.6c7.5,0,15.2,0.9,23.1,2.6c7.9,1.7,15.6,4.3,23.1,7.5
				c1.6,0.7,3.3,1.5,4.9,2.3c9.5,4.6,13.3,16.3,8.5,25.8l-8.8,17.5c-8.1-5.6-16.6-10-25.5-13.1c-8.8-3.1-17.3-4.6-25.4-4.6
				c-12.2,0-21.6,2-28.3,6c-6.7,4-10,9.6-10,16.9v0.1c0,6.1,1.7,10.9,5.2,14.4c3.5,3.5,7.8,6.1,12.9,7.8c5.1,1.6,12.3,3.4,21.6,5.2
				c0.4,0.1,0.8,0.2,1.2,0.2c0.4,0.1,0.8,0.1,1.2,0.2c0.6,0.1,1.1,0.2,1.7,0.4c0.5,0.2,1.1,0.3,1.7,0.4c13.3,2.6,24.5,5.8,33.4,9.5
				s16.4,9.7,22.4,18c6,8.3,9,19.6,9,33.9v0.3c0,13.4-3.1,24.9-9.4,34.5c-6.3,9.6-15.4,16.9-27.5,21.9c-12,5-26.5,7.5-43.4,7.5
				C752.7,745.2,747.7,745.2,747.7,745.2z"/>
			<path class="st2" d="M1009.1,532.1h52.4V727c0,8.8-7.2,16-16,16h-20.1V579.3l1.5,9.3l-37.8,122.6c-1.5,4.9-6.1,8.3-11.2,8.3
				h-17.8c-5.1,0-9.7-3.3-11.2-8.2l-37.7-119.8l1.5-12.2V743h-36.1V550.4c0-10.1,8.2-18.3,18.3-18.3h34.1L969,674.3L1009.1,532.1z"
				/>
			<path class="st2" d="M676.3,558.1v-26h-98.7h-25.2l0,0c-8,0-14.5,6.5-14.5,14.5v196.2h22.8c9.3,0,16.9-7.6,16.9-16.9v-66.7h82.7
				V621h-82.7v-50.6H664C670.8,570.4,676.3,564.9,676.3,558.1z"/>
		</g>
	</g>
</g>
</svg>
